<svg width="135" height="57" viewBox="0 0 135 57" fill="none" xmlns="http://www.w3.org/2000/svg">
<g clip-path="url(#clip0_1703_13844)">
<path d="M89.7944 22.7305L103.519 56.7158H94.0205L92.147 51.749H78.7705L76.897 56.7158H67.3984L81.167 22.7305H89.7944ZM85.4805 33.8848L81.7334 43.8623H89.1841L85.4805 33.8848Z" fill="#0094FF"/>
<path d="M116.155 22.7305V56.7158H107.44V22.7305H116.155Z" fill="#0094FF"/>
<path d="M75.2032 14.5088C74.2389 14.5088 73.339 14.4375 72.5035 14.2949C71.6676 14.1523 70.9342 13.9082 70.3024 13.5615C69.6705 13.2148 69.1744 12.7334 68.8151 12.1143C68.4547 11.4971 68.275 10.7187 68.275 9.78124V9.66894C68.275 9.62206 68.2814 9.57128 68.295 9.5166H72.5543C72.5407 9.57129 72.5338 9.62207 72.5338 9.66894V9.80175C72.5338 10.209 72.629 10.5225 72.819 10.7393C73.0094 10.957 73.2775 11.1025 73.6242 11.1777C73.9703 11.2519 74.361 11.2891 74.796 11.2891C74.9591 11.2891 75.132 11.2861 75.3156 11.2793C75.4992 11.2725 75.6754 11.2519 75.8454 11.2178C76.0153 11.1846 76.1715 11.1338 76.3141 11.0654C76.4567 10.9971 76.569 10.9053 76.6505 10.79C76.7321 10.6748 76.7726 10.5283 76.7726 10.3516C76.7726 10.0938 76.6569 9.89062 76.4264 9.74023C76.195 9.59179 75.8825 9.46191 75.4889 9.35351C75.0944 9.24511 74.6535 9.14257 74.1642 9.04785C73.6749 8.95313 73.1657 8.84082 72.6359 8.71191C72.1061 8.583 71.5963 8.41601 71.1076 8.21191C70.6183 8.00879 70.1769 7.74707 69.7829 7.42773C69.3888 7.10839 69.0763 6.708 68.8454 6.22558C68.6144 5.74316 68.4992 5.1621 68.4992 4.48339C68.4992 3.66796 68.6686 2.9746 69.0084 2.40429C69.3478 1.83398 69.8136 1.37206 70.4044 1.01855C70.9953 0.66601 71.6676 0.40722 72.422 0.24414C73.1759 0.08105 73.9669 0 74.796 0C75.6383 0 76.4293 0.08496 77.1701 0.25488C77.9103 0.4248 78.5661 0.68554 79.1364 1.03906C79.7072 1.39258 80.1554 1.84082 80.4816 2.38379C80.8078 2.92774 80.9772 3.57324 80.9909 4.32031V4.56445H76.7726V4.4834C76.7726 4.23828 76.7116 4.00781 76.589 3.79004C76.4669 3.57324 76.2736 3.39649 76.0084 3.26074C75.7433 3.12499 75.3937 3.05664 74.9591 3.05664C74.5514 3.05664 74.2081 3.09766 73.9298 3.17871C73.651 3.26074 73.444 3.37207 73.3082 3.51465C73.1725 3.6582 73.1046 3.81055 73.1046 3.97363C73.1046 4.23144 73.2199 4.44238 73.4508 4.60547C73.6818 4.76856 73.9943 4.9043 74.3883 5.0127C74.7824 5.12208 75.2238 5.22364 75.713 5.31836C76.2018 5.41406 76.7116 5.51953 77.2414 5.63477C77.7711 5.75001 78.2804 5.90332 78.7697 6.09278C79.2589 6.28321 79.6999 6.53126 80.0944 6.83692C80.4879 7.14258 80.8004 7.51954 81.0319 7.96778C81.2624 8.41602 81.3781 8.96583 81.3781 9.61817C81.3781 10.7734 81.1095 11.7109 80.5734 12.4307C80.0363 13.1504 79.3029 13.6768 78.3722 14.0098C77.4416 14.3428 76.3854 14.5088 75.2032 14.5088Z" fill="#003778"/>
<path d="M85.2496 14.2647V0.244141H93.5236C94.4064 0.244141 95.1842 0.445311 95.8566 0.845701C96.5294 1.24609 97.0558 1.7998 97.4362 2.50683C97.8161 3.21288 98.0065 4.03515 98.0065 4.97167C98.0065 5.93651 97.8131 6.77538 97.4259 7.48925C97.0387 8.20214 96.5089 8.75585 95.8366 9.14941C95.1637 9.54394 94.3927 9.74023 93.5236 9.74023H89.7535V14.2646L85.2496 14.2647ZM89.7536 6.45996H92.0153C92.4909 6.45996 92.8473 6.33789 93.0851 6.09277C93.3229 5.84863 93.442 5.48828 93.442 5.01269C93.442 4.68652 93.3908 4.41894 93.2892 4.208C93.1872 3.99706 93.0309 3.83788 92.8204 3.72948C92.6095 3.6201 92.3414 3.56639 92.0153 3.56639H89.7535L89.7536 6.45996Z" fill="#003778"/>
<path d="M101.592 14.2647V0.244141H107.665C109.268 0.244141 110.613 0.496091 111.7 0.998051C112.787 1.50098 113.612 2.26856 114.176 3.30078C114.74 4.33398 115.022 5.65137 115.022 7.25488C115.022 8.84375 114.74 10.1582 114.176 11.1973C113.612 12.2373 112.787 13.0078 111.7 13.5107C110.613 14.0137 109.268 14.2647 107.665 14.2647H101.592ZM106.096 10.9024H107.584C108.073 10.9024 108.497 10.834 108.858 10.6983C109.217 10.5625 109.513 10.3652 109.744 10.1074C109.975 9.84962 110.145 9.53028 110.254 9.14942C110.362 8.76954 110.417 8.3418 110.417 7.86622V6.64356C110.417 6.16797 110.362 5.74024 110.254 5.35938C110.145 4.9795 109.975 4.66016 109.744 4.40137C109.513 4.14356 109.217 3.94629 108.858 3.81055C108.497 3.67481 108.073 3.60645 107.584 3.60645H106.096V10.9024Z" fill="#003778"/>
<path d="M117.04 14.2647L122.053 6.84668L117.529 0.244141H122.97L125.089 3.83105H125.171L127.31 0.244141H132.344L127.799 6.86719L132.813 14.2647H127.351L124.763 9.90332H124.682L122.093 14.2647H117.04Z" fill="#003778"/>
<path d="M57.143 0.589602V0.0732422H0.5V56.7163H1.0163L57.143 0.589602Z" fill="#003778"/>
<path d="M0.564941 56.1999V56.7163H57.208V0.0732422H56.6917L0.564941 56.1999Z" fill="#0094FF"/>
<path fill-rule="evenodd" clip-rule="evenodd" d="M11.951 28.9813C12.1824 28.9368 12.3498 28.7353 12.3498 28.5006C12.3498 28.266 12.1824 28.0644 11.951 28.02C10.7945 27.8007 9.78153 27.1135 9.15387 26.1225C8.52622 25.1315 8.34029 23.9258 8.64042 22.7931C8.94056 21.6605 9.69987 20.7028 10.7371 20.1484C11.7742 19.5942 12.996 19.4933 14.1107 19.8699C14.3125 19.9415 14.5377 19.8741 14.6662 19.7036C14.7949 19.5331 14.7968 19.2993 14.6712 19.1266C14.0247 18.2089 13.7585 17.0788 13.9277 15.9709C14.0967 14.8631 14.6883 13.8626 15.5796 13.1775C16.4707 12.4923 17.593 12.1749 18.713 12.2915C18.9813 12.3193 19.2215 12.1258 19.25 11.859C19.368 10.8058 20.0005 9.87833 20.9405 9.38006C21.8805 8.88179 23.007 8.87686 23.9515 9.3668C24.8957 9.85674 25.5366 10.7786 25.664 11.8307V18.557H20.6139L19.4278 16.4593C19.7345 16.1047 19.8608 15.6296 19.7702 15.1704C19.6798 14.7112 19.3825 14.3188 18.9639 14.1056C18.5453 13.8924 18.0514 13.8822 17.6242 14.0778C17.197 14.2734 16.8836 14.6531 16.774 15.1082C16.6643 15.5633 16.7705 16.0431 17.062 16.4102C17.3536 16.7774 17.7985 16.991 18.2688 16.99C18.3733 16.9898 18.4776 16.9789 18.5798 16.9572L19.8975 19.2857C19.985 19.4394 20.1487 19.5346 20.3264 19.5351H25.6639V24.7863H20.6138L19.4277 22.6886C19.7345 22.3339 19.861 21.8587 19.7704 21.3993C19.68 20.94 19.3827 20.5474 18.9638 20.3341C18.5451 20.1209 18.0512 20.1106 17.6237 20.3063C17.1963 20.5018 16.8828 20.8818 16.7732 21.337C16.6635 21.7922 16.7697 22.2722 17.0615 22.6395C17.3533 23.0066 17.7983 23.2204 18.2687 23.2192C18.3731 23.2192 18.4774 23.2084 18.5797 23.187L19.8974 25.515C19.9849 25.6687 20.1486 25.7638 20.3263 25.7644H25.6638V28.0116H17.3217C17.165 27.55 16.7966 27.1906 16.3299 27.0436C15.8632 26.8966 15.354 26.9799 14.959 27.2677C14.5642 27.5555 14.3307 28.0135 14.3307 28.5006C14.3307 28.9876 14.5642 29.4456 14.959 29.7334C15.354 30.0213 15.8632 30.1045 16.3299 29.9575C16.7966 29.8105 17.165 29.451 17.3217 28.9896H25.6638V31.2367H20.328C20.1503 31.237 19.9865 31.3323 19.8991 31.4862L18.5815 33.8142C18.4792 33.7927 18.3749 33.7819 18.2704 33.7819C17.7973 33.7797 17.3492 33.9938 17.0553 34.3628C16.7613 34.7317 16.6538 35.2144 16.7638 35.6723C16.8737 36.1301 17.189 36.5125 17.6189 36.7092C18.0486 36.906 18.5456 36.8956 18.9665 36.6808C19.3876 36.466 19.6863 36.0706 19.7765 35.6086C19.8668 35.1464 19.7389 34.6686 19.4294 34.3126L20.6138 32.2149H25.6638V37.4653H20.3281C20.1504 37.4657 19.9867 37.5609 19.8992 37.7147L18.5815 40.0414C18.4793 40.0198 18.3749 40.0088 18.2705 40.0087C17.7973 40.0065 17.3493 40.2206 17.0553 40.5896C16.7614 40.9584 16.6539 41.4412 16.7638 41.8991C16.8738 42.3569 17.189 42.7393 17.6189 42.936C18.0487 43.1328 18.5456 43.1223 18.9666 42.9076C19.3877 42.6928 19.6863 42.2974 19.7766 41.8353C19.8669 41.3732 19.7389 40.8954 19.4294 40.5393L20.6156 38.4415L25.6639 38.4417V45.1708C25.5368 46.2229 24.8962 47.1449 23.9521 47.6351C23.0078 48.1254 21.8813 48.1206 20.9411 47.6226C20.0009 47.1246 19.3682 46.1974 19.2499 45.1442C19.2234 44.8958 19.012 44.7077 18.761 44.7091C18.7443 44.7091 18.7275 44.7099 18.7107 44.7117C17.5905 44.8281 16.4683 44.5104 15.5772 43.8248C14.6862 43.1393 14.0949 42.1385 13.9261 41.0305C13.7573 39.9224 14.0242 38.7922 14.6711 37.8748C14.7971 37.7023 14.7953 37.468 14.6667 37.2973C14.5381 37.1265 14.3126 37.0592 14.1107 37.1311C12.9959 37.5076 11.7741 37.4067 10.737 36.8524C9.69981 36.2982 8.9405 35.3405 8.64033 34.2079C8.34019 33.0753 8.52613 31.8695 9.15378 30.8785C9.78144 29.8876 10.7945 29.2006 11.951 28.9813ZM18.2687 16.0117C18.415 16.0116 18.5554 15.9536 18.6589 15.8505C18.7622 15.7474 18.8203 15.6078 18.8202 15.462C18.8201 15.3164 18.7618 15.1768 18.6582 15.0738C18.5545 14.971 18.4141 14.9131 18.2677 14.9133C18.1213 14.9134 17.981 14.9714 17.8775 15.0745C17.7742 15.1776 17.7161 15.3174 17.7162 15.463C17.717 15.6083 17.7756 15.7477 17.8789 15.8504C17.9824 15.9532 18.1225 16.0112 18.2687 16.0117ZM18.2687 22.2406C18.4152 22.2406 18.5556 22.1826 18.6593 22.0795C18.7629 21.9766 18.821 21.8367 18.821 21.6909C18.821 21.5451 18.7629 21.4054 18.6593 21.3023C18.5557 21.1992 18.4152 21.1413 18.2687 21.1413C18.1222 21.1413 17.9816 21.1992 17.878 21.3023C17.7745 21.4054 17.7162 21.5451 17.7162 21.6909C17.717 21.8364 17.7756 21.9757 17.8789 22.0785C17.9824 22.1814 18.1225 22.2399 18.2687 22.2406ZM16.4216 28.5003C16.4217 28.3544 16.3636 28.2144 16.26 28.1111C16.1564 28.0079 16.0158 27.9499 15.8691 27.9498C15.7225 27.9496 15.5818 28.0076 15.478 28.1107C15.3744 28.2138 15.316 28.3538 15.316 28.4997C15.316 28.6456 15.3741 28.7855 15.4779 28.8887C15.5815 28.992 15.7222 29.0498 15.8689 29.0498C16.0154 29.05 16.1561 28.9921 16.2597 28.889C16.3635 28.7859 16.4216 28.6462 16.4216 28.5003ZM18.8214 35.3099C18.8214 35.1641 18.7633 35.0242 18.6597 34.9213C18.556 34.8182 18.4156 34.7602 18.2691 34.7602C18.1226 34.7602 17.982 34.8182 17.8785 34.9213C17.7749 35.0242 17.7166 35.1641 17.7166 35.3099C17.7166 35.4557 17.7749 35.5954 17.8785 35.6985C17.982 35.8016 18.1226 35.8595 18.2691 35.8595C18.4153 35.8586 18.5552 35.8005 18.6585 35.6976C18.7619 35.5947 18.8207 35.4554 18.8214 35.3099ZM18.8214 41.5384C18.8214 41.3927 18.7633 41.2528 18.6597 41.1497C18.556 41.0465 18.4156 40.9887 18.2691 40.9887C18.1226 40.9887 17.982 41.0465 17.8785 41.1497C17.7749 41.2528 17.7166 41.3925 17.7166 41.5383C17.7166 41.6841 17.7749 41.8239 17.8785 41.927C17.982 42.03 18.1226 42.088 18.2691 42.088C18.4154 42.0874 18.5556 42.0293 18.659 41.9263C18.7624 41.8234 18.8209 41.6841 18.8214 41.5384ZM48.4991 32.1762L45.0523 32.9722C44.8822 33.013 44.7458 33.1394 44.6932 33.3054C44.3869 34.3106 43.9817 35.2832 43.4834 36.2092C43.4012 36.3637 43.4086 36.5502 43.5031 36.6978L45.3731 39.6869L40.1443 44.8877L37.1422 43.0265C36.9933 42.9342 36.8062 42.9278 36.6512 43.0097C35.719 43.5043 34.7406 43.9076 33.7301 44.2142C33.5633 44.2656 33.4368 44.4016 33.3981 44.571L32.5959 48H29.3926V37.5838C31.7286 37.4581 33.9273 36.4462 35.5362 34.7565C37.1451 33.0668 38.0418 30.8279 38.0418 28.5C38.0418 26.1721 37.1451 23.9332 35.5362 22.2435C33.9273 20.5538 31.7284 19.5419 29.3926 19.4162V9H32.5959L33.3999 12.4278C33.4385 12.5974 33.5649 12.7334 33.7319 12.785C34.7422 13.0921 35.7204 13.4952 36.653 13.989C36.8079 14.0713 36.9951 14.065 37.144 13.9727L40.1443 12.1124L45.3741 17.3128L43.504 20.3006C43.4097 20.4481 43.4023 20.6346 43.4844 20.7891C43.9823 21.7153 44.3875 22.6879 44.6941 23.6929C44.7468 23.8591 44.8829 23.9856 45.0532 24.0263L48.5 24.8223L48.4991 32.1762Z" fill="white"/>
</g>
<defs>
<clipPath id="clip0_1703_13844">
<rect width="134" height="57" fill="white" transform="translate(0.5)"/>
</clipPath>
</defs>
</svg>